<svg width="28" height="20" viewBox="0 0 28 20" fill="none" xmlns="http://www.w3.org/2000/svg">
<path d="M25.2221 1.13026e-06H18.5477C17.4321 -0.000755616 16.3494 0.378509 15.4782 1.07532C14.6069 1.77213 13.9989 2.74493 13.7544 3.83346C13.5093 2.74522 12.9012 1.77278 12.0301 1.07607C11.1589 0.379365 10.0766 -0.000130593 8.96107 1.13026e-06H2.29183C1.68407 0.000228884 1.10126 0.241762 0.671512 0.671513C0.241761 1.10127 0.000227754 1.68407 0 2.29183V14.0268C0.000227754 14.6346 0.241761 15.2174 0.671512 15.6471C1.10126 16.0769 1.68407 16.3184 2.29183 16.3186H6.57386C11.4531 16.3186 12.9088 17.483 13.6057 19.8995C13.6393 20.0335 13.8541 20.0335 13.8919 19.8995C14.594 17.4839 16.0497 16.3186 20.9238 16.3186H25.2058C25.8136 16.3184 26.3964 16.0769 26.8261 15.6471C27.2559 15.2174 27.4974 14.6346 27.4976 14.0268V2.29698C27.4977 1.69128 27.2583 1.11009 26.8318 0.680027C26.4053 0.24996 25.8261 0.00584752 25.2204 0.000860396L25.2221 1.13026e-06ZM11.5537 12.6699C11.5539 12.6919 11.5497 12.7137 11.5414 12.734C11.5331 12.7543 11.5209 12.7728 11.5053 12.7883C11.4898 12.8039 11.4714 12.8161 11.451 12.8244C11.4307 12.8327 11.4089 12.8369 11.387 12.8366H3.73378C3.71186 12.8368 3.69013 12.8325 3.66985 12.8242C3.64957 12.8158 3.63115 12.8036 3.61564 12.7881C3.60014 12.7726 3.58787 12.7541 3.57953 12.7339C3.57119 12.7136 3.56696 12.6919 3.56707 12.6699V11.5769C3.56707 11.4866 3.63839 11.4102 3.73378 11.4102H11.3913C11.4815 11.4102 11.558 11.4815 11.558 11.5769V12.6699H11.5537ZM11.5537 9.76283C11.5538 9.78475 11.5495 9.80648 11.5412 9.82676C11.5329 9.84704 11.5206 9.86546 11.5051 9.88096C11.4896 9.89646 11.4712 9.90874 11.4509 9.91708C11.4306 9.92542 11.4089 9.92965 11.387 9.92954H3.73378C3.71186 9.92965 3.69013 9.92542 3.66985 9.91708C3.64957 9.90874 3.63115 9.89646 3.61564 9.88096C3.60014 9.86546 3.58787 9.84704 3.57953 9.82676C3.57119 9.80648 3.56696 9.78475 3.56707 9.76283V8.66976C3.56707 8.57867 3.63839 8.50305 3.73378 8.50305H11.3913C11.4815 8.50305 11.558 8.57438 11.558 8.66976V9.76283H11.5537ZM11.5537 6.85572C11.5538 6.87764 11.5495 6.89937 11.5412 6.91965C11.5329 6.93993 11.5206 6.95835 11.5051 6.97385C11.4896 6.98936 11.4712 7.00163 11.4509 7.00997C11.4306 7.01831 11.4089 7.02254 11.387 7.02243H3.73378C3.71186 7.02254 3.69013 7.01831 3.66985 7.00997C3.64957 7.00163 3.63115 6.98936 3.61564 6.97385C3.60014 6.95835 3.58787 6.93993 3.57953 6.91965C3.57119 6.89937 3.56696 6.87764 3.56707 6.85572V5.76265C3.56707 5.67243 3.63839 5.59594 3.73378 5.59594H11.3913C11.4815 5.59594 11.558 5.66727 11.558 5.76265V6.85572H11.5537ZM23.9331 12.6656C23.9333 12.6876 23.929 12.7093 23.9207 12.7296C23.9123 12.7498 23.9001 12.7683 23.8846 12.7838C23.8691 12.7993 23.8506 12.8116 23.8304 12.8199C23.8101 12.8282 23.7884 12.8325 23.7664 12.8323H16.1133C16.0913 12.8325 16.0696 12.8282 16.0493 12.8199C16.029 12.8116 16.0106 12.7993 15.9951 12.7838C15.9796 12.7683 15.9673 12.7498 15.959 12.7296C15.9507 12.7093 15.9464 12.6876 15.9465 12.6656V11.5726C15.9465 11.4823 16.0179 11.4059 16.1133 11.4059H23.7707C23.8618 11.4059 23.9374 11.4772 23.9374 11.5726V12.6656H23.9331ZM23.9331 9.75853C23.9334 9.78049 23.9292 9.80227 23.9209 9.8226C23.9126 9.84293 23.9004 9.8614 23.8848 9.87692C23.8693 9.89245 23.8508 9.90472 23.8305 9.91302C23.8102 9.92131 23.7884 9.92547 23.7664 9.92524H16.1133C16.0913 9.92535 16.0696 9.92112 16.0493 9.91278C16.029 9.90444 16.0106 9.89217 15.9951 9.87666C15.9796 9.86116 15.9673 9.84274 15.959 9.82246C15.9507 9.80218 15.9464 9.78045 15.9465 9.75853V8.66546C15.9465 8.57523 16.0179 8.49875 16.1133 8.49875H23.7707C23.8618 8.49875 23.9374 8.57008 23.9374 8.66546V9.75853H23.9331ZM23.9331 6.85056C23.9333 6.87249 23.929 6.89422 23.9207 6.91449C23.9123 6.93477 23.9001 6.9532 23.8846 6.9687C23.8691 6.9842 23.8506 6.99648 23.8304 7.00482C23.8101 7.01315 23.7884 7.01739 23.7664 7.01727H16.1133C16.0913 7.01739 16.0696 7.01315 16.0493 7.00482C16.029 6.99648 16.0106 6.9842 15.9951 6.9687C15.9796 6.9532 15.9673 6.93477 15.959 6.91449C15.9507 6.89422 15.9464 6.87249 15.9465 6.85056V5.7618C15.9465 5.67157 16.0179 5.59509 16.1133 5.59509H23.7707C23.8618 5.59509 23.9374 5.66641 23.9374 5.7618V6.85056H23.9331Z" fill="#46923B"/>
</svg>
