<svg width="24" height="24" viewBox="0 0 24 24" fill="none" xmlns="http://www.w3.org/2000/svg">
<path d="M1.66667 12C1.66667 17.7067 6.29333 22.3333 12 22.3333C17.7067 22.3333 22.3333 17.7067 22.3333 12C22.3333 6.29334 17.7067 1.66668 12 1.66668C10.5711 1.66503 9.15753 1.96051 7.84896 2.53435C6.54038 3.10818 5.36542 3.94784 4.39867 5.00001H7.16667C7.38768 5.00001 7.59964 5.08781 7.75592 5.24409C7.9122 5.40037 8 5.61233 8 5.83334C8 6.05436 7.9122 6.26632 7.75592 6.4226C7.59964 6.57888 7.38768 6.66668 7.16667 6.66668H2.83333C2.37333 6.66668 2 6.29334 2 5.83334V1.50001C2 1.279 2.0878 1.06704 2.24408 0.910755C2.40036 0.754475 2.61232 0.666678 2.83333 0.666678C3.05435 0.666678 3.26631 0.754475 3.42259 0.910755C3.57887 1.06704 3.66667 1.279 3.66667 1.50001V3.36534C5.90132 1.20287 8.89035 -0.00421993 12 1.10852e-05C18.6273 1.10852e-05 24 5.37268 24 12C24 18.6273 18.6273 24 12 24C5.37267 24 0 18.6273 0 12C0 11.5827 0.0213332 11.1707 0.0626666 10.764C0.108 10.3213 0.492 10 0.937333 10C1.41533 10 1.77267 10.4367 1.72333 10.9127C1.68558 11.2739 1.66667 11.6368 1.66667 12ZM12.6667 6.16668C12.6667 5.94566 12.5789 5.7337 12.4226 5.57742C12.2663 5.42114 12.0543 5.33334 11.8333 5.33334C11.6123 5.33334 11.4004 5.42114 11.2441 5.57742C11.0878 5.7337 11 5.94566 11 6.16668V13.1667C11 13.6267 11.3733 14 11.8333 14H15.1667C15.3877 14 15.5996 13.9122 15.7559 13.7559C15.9122 13.5997 16 13.3877 16 13.1667C16 12.9457 15.9122 12.7337 15.7559 12.5774C15.5996 12.4211 15.3877 12.3333 15.1667 12.3333H12.6667V6.16668Z" fill="#8789A3"/>
</svg>
